<svg xmlns="http://www.w3.org/2000/svg" width="1024" height="1024" viewBox="0 0 1024 1024">
<defs><linearGradient id="steel" x1="0.15" y1="0.05" x2="0.85" y2="0.95">
<stop offset="0%" stop-color="#ffffff"/><stop offset="13%" stop-color="#e9ecf1"/>
<stop offset="25%" stop-color="#fafbfd"/><stop offset="40%" stop-color="#98a0ae"/>
<stop offset="52%" stop-color="#6b7280"/><stop offset="64%" stop-color="#c9cfd9"/>
<stop offset="78%" stop-color="#f3f5f8"/><stop offset="100%" stop-color="#a6adba"/>
</linearGradient>
<linearGradient id="swp" x1="0" y1="0" x2="0.5" y2="1">
<stop offset="0%" stop-color="#ffffff" stop-opacity="0.62"/>
<stop offset="22%" stop-color="#ffffff" stop-opacity="0"/></linearGradient>
<linearGradient id="smoke" x1="0.1" y1="0" x2="0.9" y2="1">
<stop offset="0%" stop-color="#000000" stop-opacity="0"/>
<stop offset="52%" stop-color="#12161f" stop-opacity="0.22"/>
<stop offset="72%" stop-color="#000000" stop-opacity="0"/></linearGradient>
<filter id="blr"><feGaussianBlur stdDeviation="12"/></filter>
<filter id="mblr"><feGaussianBlur stdDeviation="2.2"/></filter><clipPath id="mk"><path d="M812.89 665.31 A337.70 337.70 0 1 1 812.89 358.69 L853.51 337.99 L832.80 487.41 L699.75 416.34 L740.36 395.64 A256.30 256.30 0 1 0 740.36 628.36 L755.20 688.90 Z"/><path d="M419.5 392.5 L419.5 631.5 L645.0 512.0 Z"/></clipPath>
<mask id="hiM"><path d="M812.89 665.31 A337.70 337.70 0 1 1 812.89 358.69 L853.51 337.99 L832.80 487.41 L699.75 416.34 L740.36 395.64 A256.30 256.30 0 1 0 740.36 628.36 L755.20 688.90 Z" fill="#fff"/><path d="M419.5 392.5 L419.5 631.5 L645.0 512.0 Z" fill="#fff"/>
 <g transform="translate(4.48,6.11)" filter="url(#mblr)">
  <path d="M812.89 665.31 A337.70 337.70 0 1 1 812.89 358.69 L853.51 337.99 L832.80 487.41 L699.75 416.34 L740.36 395.64 A256.30 256.30 0 1 0 740.36 628.36 L755.20 688.90 Z" fill="#000"/><path d="M419.5 392.5 L419.5 631.5 L645.0 512.0 Z" fill="#000"/></g></mask>
<mask id="loM"><path d="M812.89 665.31 A337.70 337.70 0 1 1 812.89 358.69 L853.51 337.99 L832.80 487.41 L699.75 416.34 L740.36 395.64 A256.30 256.30 0 1 0 740.36 628.36 L755.20 688.90 Z" fill="#fff"/><path d="M419.5 392.5 L419.5 631.5 L645.0 512.0 Z" fill="#fff"/>
 <g transform="translate(-4.48,-6.11)" filter="url(#mblr)">
  <path d="M812.89 665.31 A337.70 337.70 0 1 1 812.89 358.69 L853.51 337.99 L832.80 487.41 L699.75 416.34 L740.36 395.64 A256.30 256.30 0 1 0 740.36 628.36 L755.20 688.90 Z" fill="#000"/><path d="M419.5 392.5 L419.5 631.5 L645.0 512.0 Z" fill="#000"/></g></mask><clipPath id="cc"><circle cx="512" cy="512" r="512"/></clipPath>
<radialGradient id="bgv" cx="50%" cy="36%" r="82%"><stop offset="0%" stop-color="#1a1c22"/><stop offset="100%" stop-color="#06070a"/></radialGradient></defs>
<g clip-path="url(#cc)"><rect width="1024" height="1024" fill="url(#bgv)"/>
<g transform="translate(0,9.0)" opacity="0.5" filter="url(#blr)">
 <path d="M812.89 665.31 A337.70 337.70 0 1 1 812.89 358.69 L853.51 337.99 L832.80 487.41 L699.75 416.34 L740.36 395.64 A256.30 256.30 0 1 0 740.36 628.36 L755.20 688.90 Z" fill="#000"/><path d="M419.5 392.5 L419.5 631.5 L645.0 512.0 Z" fill="#000"/></g>
<path d="M812.89 665.31 A337.70 337.70 0 1 1 812.89 358.69 L853.51 337.99 L832.80 487.41 L699.75 416.34 L740.36 395.64 A256.30 256.30 0 1 0 740.36 628.36 L755.20 688.90 Z" fill="url(#steel)"/>
<path d="M419.5 392.5 L419.5 631.5 L645.0 512.0 Z" fill="url(#steel)"/>
<g clip-path="url(#mk)">
 <rect x="0" y="0" width="3000" height="3000" fill="url(#swp)"/>
 <rect x="0" y="0" width="3000" height="3000" fill="url(#smoke)"/>
</g>
<g mask="url(#hiM)"><path d="M812.89 665.31 A337.70 337.70 0 1 1 812.89 358.69 L853.51 337.99 L832.80 487.41 L699.75 416.34 L740.36 395.64 A256.30 256.30 0 1 0 740.36 628.36 L755.20 688.90 Z" fill="#ffffff" opacity="0.95"/><path d="M419.5 392.5 L419.5 631.5 L645.0 512.0 Z" fill="#ffffff" opacity="0.95"/></g>
<g mask="url(#loM)"><path d="M812.89 665.31 A337.70 337.70 0 1 1 812.89 358.69 L853.51 337.99 L832.80 487.41 L699.75 416.34 L740.36 395.64 A256.30 256.30 0 1 0 740.36 628.36 L755.20 688.90 Z" fill="#3f4654" opacity="0.75"/><path d="M419.5 392.5 L419.5 631.5 L645.0 512.0 Z" fill="#3f4654" opacity="0.75"/></g></g></svg>